<svg xmlns="http://www.w3.org/2000/svg" preserveAspectRatio="xMidYMid" width="366" height="53"><g fill="#1c2445" fill-rule="evenodd"><path d="M65.09 53H2.913A2.913 2.913 0 0 1 0 50.087C0 50.039.039 50 .087 50H5V12.998C5 11.894 5.894 11 6.998 11h54.004c1.103 0 1.998.894 1.998 1.998V50h4.963c.02 0 .037.017.037.037v.053A2.91 2.91 0 0 1 65.09 53zM62 13H6v37h56V13zM109 53H97a4 4 0 0 1-4-4V19a4 4 0 0 1 4-4h12a4 4 0 0 1 4 4v30a4 4 0 0 1-4 4zm-7-1h2v-2h-2v2zm3-35h-4v1h4v-1zm7 2H94v30h18V19zM175 53h-30a2 2 0 0 1-2-2V7a2 2 0 0 1 2-2h30a2 2 0 0 1 2 2v44a2 2 0 0 1-2 2zm-16-1h2v-2h-2v2zm17-45h-32v42h32V7zM285 48h-34v1h10.5l3.999 4h-2.996l-2-2h-28.006l-2.001 2h-2.995l3.999-4H243v-1h-34a2 2 0 0 1-2-2V2a2 2 0 0 1 2-2h76a2 2 0 0 1 2 2v44a2 2 0 0 1-2 2zm1-46h-78v44h78V2zM361.009 41.205V43c-8.871 0-16.381 2.892-18.998 6.89V53h-1v-3.11c-2.618-3.998-10.128-6.89-18.998-6.89v-1.795a58.78 58.78 0 0 0-5-.217V3c12.098 0 22.186 6.114 24.498 13.818C343.822 9.114 353.91 3 366.008 3v37.988c-1.715 0-3.382.079-4.999.217zm-19.998-21.042c0-8.536-10.432-15.781-22.998-16.148v35.98c10.771.169 19.298 3.054 22.998 7.415V20.163zm23.997 8.331V4.015c-12.566.367-22.997 7.612-22.997 16.148V47.41c3.699-4.361 12.226-7.246 22.997-7.415V28.494z"/></g></svg>