<svg width="20" height="20" fill="none" xmlns="http://www.w3.org/2000/svg"><path fill-rule="evenodd" clip-rule="evenodd" d="M7.585 15.779C6.69 14.525 6.082 12.419 6.008 10H2.956a6.567 6.567 0 004.629 5.779zM2.956 9h3.052c.074-2.42.683-4.525 1.577-5.779A6.567 6.567 0 002.956 9zM9.5 2a7.5 7.5 0 110 15 7.5 7.5 0 010-15zm1.915 13.779A6.567 6.567 0 0016.044 10h-3.052c-.074 2.42-.684 4.525-1.577 5.779zM16.044 9a6.567 6.567 0 00-4.629-5.779c.894 1.254 1.503 3.36 1.577 5.779h3.052zm-4.975 5.38c.51-1.094.865-2.629.923-4.38H7.008c.057 1.751.413 3.286.923 4.38C8.528 15.66 9.153 16 9.5 16s.972-.341 1.569-1.62zM7.93 4.62c-.51 1.094-.866 2.629-.923 4.38h4.984c-.058-1.751-.413-3.286-.923-4.38C10.472 3.34 9.847 3 9.5 3s-.972.341-1.569 1.62z" fill="#fff"/></svg>